<mxfile host="app.diagrams.net" agent="Mozilla/5.0 (Macintosh; Intel Mac OS X 10_15_7) AppleWebKit/537.36 (KHTML, like Gecko) Chrome/128.0.0.0 Safari/537.36" version="24.7.7">
  <diagram name="Page-1" id="nw_tDOHUn0Kqw1uzuphJ">
    <mxGraphModel dx="1224" dy="676" grid="1" gridSize="10" guides="1" tooltips="1" connect="1" arrows="1" fold="1" page="1" pageScale="1" pageWidth="850" pageHeight="1100" math="0" shadow="0">
      <root>
        <mxCell id="0" />
        <mxCell id="1" parent="0" />
        <mxCell id="nBaKIJpyfKftcn6sd4s6-4" value="s" style="rounded=0;whiteSpace=wrap;html=1;fillColor=#f8cecc;strokeColor=#b85450;" vertex="1" parent="1">
          <mxGeometry x="80" y="40" width="640" height="440" as="geometry" />
        </mxCell>
        <mxCell id="catjo7fKtfjQIuKM4InH-1" value="statement_before" style="rounded=0;whiteSpace=wrap;html=1;strokeWidth=2;fontSize=17;" parent="1" vertex="1">
          <mxGeometry x="320" y="80" width="160" height="40" as="geometry" />
        </mxCell>
        <mxCell id="catjo7fKtfjQIuKM4InH-2" value="" style="endArrow=classic;html=1;rounded=0;strokeWidth=2;fontSize=17;" parent="1" edge="1">
          <mxGeometry width="50" height="50" relative="1" as="geometry">
            <mxPoint x="400" y="120" as="sourcePoint" />
            <mxPoint x="400" y="160" as="targetPoint" />
          </mxGeometry>
        </mxCell>
        <mxCell id="catjo7fKtfjQIuKM4InH-3" value="exp" style="rhombus;whiteSpace=wrap;html=1;strokeWidth=2;fontSize=29;" parent="1" vertex="1">
          <mxGeometry x="320" y="160" width="160" height="80" as="geometry" />
        </mxCell>
        <mxCell id="catjo7fKtfjQIuKM4InH-4" value="" style="endArrow=classic;html=1;rounded=0;strokeWidth=2;fontSize=17;" parent="1" edge="1">
          <mxGeometry width="50" height="50" relative="1" as="geometry">
            <mxPoint x="480" y="200" as="sourcePoint" />
            <mxPoint x="600" y="240" as="targetPoint" />
            <Array as="points">
              <mxPoint x="600" y="200" />
            </Array>
          </mxGeometry>
        </mxCell>
        <mxCell id="catjo7fKtfjQIuKM4InH-5" value="True" style="text;html=1;align=center;verticalAlign=middle;resizable=0;points=[];autosize=1;strokeColor=none;fillColor=none;strokeWidth=2;fontSize=17;fontColor=#00CC00;fontStyle=1" parent="1" vertex="1">
          <mxGeometry x="555" y="160" width="60" height="30" as="geometry" />
        </mxCell>
        <mxCell id="catjo7fKtfjQIuKM4InH-7" value="statement_if_1&lt;div&gt;statement_if_2&lt;/div&gt;&lt;div&gt;...&lt;/div&gt;" style="rounded=0;whiteSpace=wrap;html=1;strokeWidth=2;fontSize=17;fontColor=#00CC00;fontStyle=0" parent="1" vertex="1">
          <mxGeometry x="520" y="240" width="160" height="80" as="geometry" />
        </mxCell>
        <mxCell id="catjo7fKtfjQIuKM4InH-8" value="" style="endArrow=classic;html=1;rounded=0;strokeWidth=2;fontSize=17;" parent="1" edge="1">
          <mxGeometry width="50" height="50" relative="1" as="geometry">
            <mxPoint x="600" y="320" as="sourcePoint" />
            <mxPoint x="400" y="360" as="targetPoint" />
            <Array as="points">
              <mxPoint x="600" y="360" />
            </Array>
          </mxGeometry>
        </mxCell>
        <mxCell id="catjo7fKtfjQIuKM4InH-10" value="" style="endArrow=classic;html=1;rounded=0;strokeWidth=2;fontSize=17;" parent="1" edge="1">
          <mxGeometry width="50" height="50" relative="1" as="geometry">
            <mxPoint x="400" y="240" as="sourcePoint" />
            <mxPoint x="400" y="400" as="targetPoint" />
          </mxGeometry>
        </mxCell>
        <mxCell id="catjo7fKtfjQIuKM4InH-11" value="statement_after" style="rounded=0;whiteSpace=wrap;html=1;strokeWidth=2;fontSize=17;" parent="1" vertex="1">
          <mxGeometry x="320" y="400" width="160" height="40" as="geometry" />
        </mxCell>
        <mxCell id="nBaKIJpyfKftcn6sd4s6-1" value="" style="endArrow=classic;html=1;rounded=0;strokeWidth=2;" edge="1" parent="1">
          <mxGeometry width="50" height="50" relative="1" as="geometry">
            <mxPoint x="320" y="200" as="sourcePoint" />
            <mxPoint x="200" y="240" as="targetPoint" />
            <Array as="points">
              <mxPoint x="200" y="200" />
            </Array>
          </mxGeometry>
        </mxCell>
        <mxCell id="nBaKIJpyfKftcn6sd4s6-2" value="statement_else_1&lt;div&gt;statement_ese_2&lt;/div&gt;&lt;div&gt;...&lt;/div&gt;" style="rounded=0;whiteSpace=wrap;html=1;strokeWidth=2;fontSize=17;fontColor=#FF0000;fontStyle=0" vertex="1" parent="1">
          <mxGeometry x="120" y="240" width="160" height="80" as="geometry" />
        </mxCell>
        <mxCell id="nBaKIJpyfKftcn6sd4s6-3" value="" style="endArrow=classic;html=1;rounded=0;strokeWidth=2;" edge="1" parent="1">
          <mxGeometry width="50" height="50" relative="1" as="geometry">
            <mxPoint x="200" y="320" as="sourcePoint" />
            <mxPoint x="400" y="360" as="targetPoint" />
            <Array as="points">
              <mxPoint x="200" y="360" />
            </Array>
          </mxGeometry>
        </mxCell>
        <mxCell id="nBaKIJpyfKftcn6sd4s6-5" value="False" style="text;html=1;align=center;verticalAlign=middle;resizable=0;points=[];autosize=1;strokeColor=none;fillColor=none;strokeWidth=2;fontSize=17;fontColor=#FF0000;fontStyle=1" vertex="1" parent="1">
          <mxGeometry x="195" y="160" width="70" height="30" as="geometry" />
        </mxCell>
      </root>
    </mxGraphModel>
  </diagram>
</mxfile>
